PathFileType	4	(X/Y/Z)	3_coords_data.trc
DataRate	CameraRate	NumFrames	NumMarkers	Units	OrigDataRate	OrigDataStartFrame	OrigNumFrames
30.0	30.0	9	21	m	30.0	39	48
Frame#	Time	THUMB_TIP	THUMB_IP	THUMB_MCP	THUMB_CMC	INDEX_TIP	INDEX_DIP	INDEX_PIP	INDEX_MCP	MIDDLE_TIP	MIDDLE_DIP	MIDDLE_PIP	MIDDLE_MCP	RING_TIP	RING_DIP	RING_PIP	RING_MCP	PINKY_TIP	PINKY_DIP	PINKY_PIP	PINKY_MCP	WRIST
X1	Y1	Z1	X2	Y2	Z2	X3	Y3	Z3	X4	Y4	Z4	X5	Y5	Z5	X6	Y6	Z6	X7	Y7	Z7	X8	Y8	Z8	X9	Y9	Z9	X10	Y10	Z10	X11	Y11	Z11	X12	Y12	Z12	X13	Y13	Z13	X14	Y14	Z14	X15	Y15	Z15	X16	Y16	Z16	X17	Y17	Z17	X18	Y18	Z18	X19	Y19	Z19	X20	Y20	Z20	X21	Y21	Z21
38	1.2666666666666666	-0.026136999130249024	-0.07381939697265626	0.9745339965820312	-0.04342129898071289	-0.07158910369873046	0.9965029907226562	-0.06121390151977539	-0.07006310272216797	1.0236900024414062	-0.07952940368652343	-0.0488473014831543	1.0460799560546874	-0.007444709777832031	-0.0419906005859375	0.9605900268554688	-0.028452499389648438	-0.04796490097045898	0.95952197265625	-0.052437198638916015	-0.05456439971923828	0.9638480224609375	-0.08309420013427735	-0.06300260162353516	0.99039697265625	-0.005252999782562256	-0.023409900665283204	0.9622379760742188	-0.02689590072631836	-0.02716189956665039	0.959208984375	-0.05615390014648437	-0.033098499298095704	0.9625449829101562	-0.09063089752197266	-0.041392200469970705	0.9865579833984375	-0.01793589973449707	-0.006432600021362304	0.9707360229492188	-0.03816239929199219	-0.007532139778137207	0.9664229736328125	-0.06573680114746094	-0.01208489990234375	0.9677490234375	-0.09505870056152343	-0.021382200241088868	0.9923820190429687	-0.03681019973754883	0.007046879768371582	0.9770980224609375	-0.05490240097045898	0.008158450126647948	0.9752509765625	-0.07449269866943359	0.005344130039215088	0.9801079711914062	-0.09465450286865235	-0.002753690004348755	1.001219970703125	-0.10995400238037109	-0.031074499130249022	1.0664300537109375
39	1.3	-0.023545400619506836	-0.06681199645996094	0.975593994140625	-0.040776798248291016	-0.06664230346679688	0.9974569702148437	-0.05862889862060547	-0.06642960357666015	1.0243900146484375	-0.07849980163574219	-0.046137298583984375	1.0469200439453126	-0.00604403018951416	-0.03921829986572266	0.9718939819335938	-0.02576259994506836	-0.04535559844970703	0.9662059936523437	-0.05019649887084961	-0.05251850128173828	0.966718994140625	-0.08325460052490234	-0.061857799530029296	0.9917150268554688	-0.005205900192260742	-0.021794000625610353	0.97447802734375	-0.025203500747680664	-0.025173200607299804	0.9666669921875	-0.054687400817871094	-0.03141189956665039	0.9653599853515625	-0.09102110290527343	-0.040535099029541014	0.987333984375	-0.01854010009765625	-0.006257669925689697	0.980958984375	-0.03700550079345703	-0.006658559799194336	0.9727689819335937	-0.06467140197753907	-0.010867199897766112	0.969552978515625	-0.09554810333251954	-0.020380800247192382	0.992843017578125	-0.037254798889160154	0.005981750011444091	0.9847069702148438	-0.053632400512695313	0.008417380332946778	0.9786599731445312	-0.07397380065917969	0.006322329998016358	0.9808489990234375	-0.09545120239257812	-0.0016069799661636351	1.0016400146484374	-0.10915799713134766	-0.029258600234985353	1.0673599853515625
40	1.3333333333333333	-0.02315060043334961	-0.06256380081176757	0.9756740112304687	-0.04013690185546875	-0.0635369987487793	0.9975280151367187	-0.05775799942016602	-0.06406900024414063	1.0246199951171875	-0.078543701171875	-0.04445380020141602	1.0479300537109375	-0.006657790184020996	-0.03752849960327148	0.981052001953125	-0.0245939998626709	-0.043314399719238283	0.9715679931640625	-0.049179401397705075	-0.05070370101928711	0.968760009765625	-0.08344879913330078	-0.06052830123901367	0.9923599853515624	-0.006378829956054688	-0.020978500366210937	0.9834240112304687	-0.024626300811767577	-0.02375079917907715	0.9722769775390625	-0.05395159912109375	-0.02978879928588867	0.9673779907226563	-0.0913595962524414	-0.03919860076904297	0.987958984375	-0.020094200134277342	-0.005827690124511719	0.9875869750976562	-0.036947101593017576	-0.005617179870605469	0.9765759887695312	-0.06430079650878906	-0.009430350303649903	0.9708909912109375	-0.09604129791259766	-0.019032400131225587	0.9932540283203125	-0.03844260025024414	0.005953589916229248	0.9892570190429687	-0.05339089965820312	0.00930537986755371	0.98114697265625	-0.07394339752197265	0.0077976398468017575	0.9815059814453125	-0.09622129821777343	-0.00027525100111961304	1.0022000122070311	-0.1086699981689453	-0.027848199844360353	1.0678800048828125
41	1.3666666666666667	-0.022985000610351563	-0.06039619827270508	0.9756699829101563	-0.040073699951171875	-0.062058601379394535	0.9973790283203126	-0.057617801666259766	-0.06279980087280274	1.0244100341796876	-0.0780416030883789	-0.043411800384521484	1.0481199951171876	-0.008073069572448731	-0.03670949935913086	0.9866929931640624	-0.024287700653076172	-0.04187749862670898	0.97506201171875	-0.04870500183105469	-0.04919820022583008	0.969760986328125	-0.08378669738769531	-0.05913769912719727	0.992468017578125	-0.00784388017654419	-0.020540300369262694	0.9893660278320312	-0.02448080062866211	-0.022586000442504882	0.9758670043945312	-0.053262401580810546	-0.028277700424194335	0.9684739990234374	-0.09140889739990235	-0.0379271011352539	0.9880250244140625	-0.021313999176025392	-0.00581194019317627	0.99235400390625	-0.036448600769042966	-0.004817279815673828	0.9795800170898438	-0.06379990005493164	-0.008095379829406738	0.971843017578125	-0.0960282974243164	-0.0177096004486084	0.9930780029296875	-0.039312801361083984	0.005812860012054443	0.9925020141601563	-0.05288779830932617	0.010010199546813965	0.982697021484375	-0.07372799682617187	0.009023409843444824	0.9820689697265625	-0.09611810302734375	0.00092195701599121	1.0024199829101563	-0.10856800079345703	-0.026702600479125975	1.0682099609375
42	1.4	-0.023011199951171873	-0.05946329879760742	0.9757449951171875	-0.04006399917602539	-0.06143920135498047	0.99731201171875	-0.05754550170898438	-0.06218199920654297	1.0244200439453126	-0.0774293975830078	-0.043024398803710937	1.0477099609375	-0.008873860359191894	-0.03629790115356445	0.9889810180664063	-0.024222700119018555	-0.041025299072265625	0.9761099853515625	-0.04852199935913086	-0.04826480102539062	0.9698309936523437	-0.08379640197753906	-0.05839440155029297	0.9924530029296875	-0.008813909530639649	-0.020202199935913087	0.9917119750976563	-0.024501699447631836	-0.021807600021362304	0.9775260009765625	-0.05298009872436524	-0.027306900024414063	0.9688800048828125	-0.09119599914550781	-0.037122398376464846	0.9877739868164063	-0.021947099685668946	-0.005731649875640869	0.9948330078125	-0.036472999572753906	-0.004281519889831543	0.9813309936523438	-0.06331169891357422	-0.0071942701339721676	0.9725250244140625	-0.09610369873046876	-0.01692880058288574	0.9936489868164062	-0.039489200592041016	0.0057530999183654785	0.9945809936523438	-0.052595199584960936	0.01035669994354248	0.9838909912109375	-0.07322489929199219	0.009724149703979492	0.9826170043945313	-0.09603549957275391	0.001592479944229126	1.0027000122070313	-0.10843399810791016	-0.0263981990814209	1.0680799560546874
43	1.4333333333333333	-0.022718000411987304	-0.059091201782226564	0.9758889770507813	-0.03968820190429687	-0.061236900329589845	0.9974609985351562	-0.057380599975585936	-0.06207339859008789	1.0244200439453126	-0.07771959686279296	-0.043009201049804685	1.047739990234375	-0.009409589767456055	-0.03604740142822266	0.9898989868164062	-0.024037500381469727	-0.04072959899902344	0.9763060302734375	-0.048195899963378905	-0.048060501098632816	0.9697260131835937	-0.083302001953125	-0.058316001892089846	0.9923590087890625	-0.009235830307006835	-0.020086599349975587	0.9928709716796875	-0.02446980094909668	-0.021591400146484373	0.9780540161132812	-0.05270339965820312	-0.02705780029296875	0.9688779907226562	-0.09097869873046875	-0.03702629852294922	0.98747900390625	-0.02220330047607422	-0.005797520160675049	0.9956699829101563	-0.036493999481201175	-0.004170460224151611	0.9819290161132812	-0.06308629989624023	-0.006983900070190429	0.9726069946289062	-0.09594170379638672	-0.01687660026550293	0.9932030029296876	-0.03970840072631836	0.00556328010559082	0.9953109741210937	-0.05241889953613281	0.010401599884033203	0.9843519897460937	-0.07299130249023437	0.009832229614257813	0.9827529907226562	-0.09601740264892578	0.0015981199741363522	1.0027899780273437	-0.10864900207519532	-0.02653700065612793	1.06806005859375
44	1.4666666666666666	-0.022417400360107424	-0.05935390090942383	0.9758880004882813	-0.03959370040893555	-0.061435298919677736	0.99743701171875	-0.05740739822387695	-0.06233240127563477	1.0241700439453125	-0.07816179656982422	-0.04328609848022461	1.0475	-0.009010120391845703	-0.036345901489257815	0.9897349853515625	-0.023936899185180664	-0.041012001037597653	0.9761630249023437	-0.04804309844970703	-0.04840359878540039	0.9695339965820312	-0.0833772964477539	-0.05866410064697265	0.9919229736328125	-0.009183890342712402	-0.02027280044555664	0.992760009765625	-0.02442110061645508	-0.021830299377441405	0.9780399780273438	-0.052699901580810546	-0.02743199920654297	0.9688109741210937	-0.090981201171875	-0.03749530029296875	0.9876829833984375	-0.02234320068359375	-0.006023739814758301	0.9958189697265625	-0.03645709991455078	-0.00446451997756958	0.9818480224609375	-0.06313520050048828	-0.007332240104675293	0.9724290161132813	-0.09585420227050781	-0.01731879997253418	0.9927620239257813	-0.03965420150756836	0.005280849933624268	0.99510302734375	-0.052358699798583985	0.010106499671936036	0.9842069702148437	-0.07295249938964844	0.009498720169067382	0.982448974609375	-0.09601319885253906	0.0011087000370025631	1.002280029296875	-0.10899199676513673	-0.02697050094604492	1.06772998046875
45	1.5	-0.02244659996032715	-0.06018889999389648	0.9756160278320313	-0.03976089859008789	-0.06221770095825195	0.9971099853515625	-0.05756919860839844	-0.06300519943237305	1.0239099731445314	-0.07874250030517578	-0.044130298614501955	1.0474000244140624	-0.009120550155639649	-0.03705530166625977	0.9889639892578125	-0.02410700035095215	-0.041907798767089846	0.9757379760742187	-0.04825600051879883	-0.049239498138427734	0.9691290283203124	-0.08342980194091797	-0.0595281982421875	0.9914600219726563	-0.009110019683837891	-0.020981399536132813	0.991572998046875	-0.02453529930114746	-0.02263949966430664	0.9771240234375	-0.05273759841918945	-0.028213199615478517	0.9680999755859375	-0.09080509948730468	-0.03821080017089844	0.98685400390625	-0.022454500198364258	-0.006774400234222412	0.9952239990234375	-0.036626598358154294	-0.005176919937133789	0.9812150268554688	-0.06329740142822265	-0.008084699630737305	0.971948974609375	-0.09620120239257812	-0.018140399932861328	0.9928200073242187	-0.039813701629638674	0.004688399791717529	0.994447998046875	-0.052590499877929686	0.009403300285339356	0.98356201171875	-0.07329499816894532	0.008768150329589844	0.9820599975585937	-0.09630269622802734	0.00034073600172996503	1.0019400024414062	-0.10923899841308594	-0.027724000930786134	1.0672900390625
46	1.5333333333333334	-0.02253779983520508	-0.06106050109863281	0.9754970092773437	-0.03995090103149414	-0.06307870101928711	0.9968359985351563	-0.05786940002441406	-0.06385359954833984	1.02347998046875	-0.07909420013427734	-0.044957298278808594	1.0468800048828124	-0.009205169677734375	-0.038037601470947265	0.98797802734375	-0.024441299438476564	-0.04290439987182617	0.9747239990234375	-0.04855220031738281	-0.05026649856567383	0.9685260009765625	-0.08366950225830078	-0.06027730178833008	0.99106298828125	-0.009033169746398926	-0.021881500244140626	0.9904580078125	-0.024665300369262694	-0.023593999862670897	0.9761320190429688	-0.05306610107421875	-0.02915130043029785	0.9675120239257813	-0.09114409637451172	-0.03907429885864258	0.9866229858398438	-0.022494300842285157	-0.007667970180511474	0.9944030151367188	-0.03672990036010742	-0.006042469978332518	0.9805130004882813	-0.06354339981079102	-0.008909540176391601	0.9713359985351563	-0.09630840301513671	-0.018901899337768556	0.992198974609375	-0.039856700897216796	0.003931710004806518	0.9935050048828125	-0.05291790008544922	0.008653539657592774	0.982864990234375	-0.073439697265625	0.008007280349731445	0.981489990234375	-0.09639299774169922	-0.000393610000610351	1.0015999755859375	-0.10949700164794922	-0.028439300537109375	1.06672998046875
